<?xml version="1.0" standalone="no"?>
<!DOCTYPE svg PUBLIC "-//W3C//DTD SVG 20010904//EN"
 "http://www.w3.org/TR/2001/REC-SVG-20010904/DTD/svg10.dtd">
<svg version="1.0" xmlns="http://www.w3.org/2000/svg"
 width="230.000000pt" height="230.000000pt" viewBox="0 0 230.000000 230.000000"
 preserveAspectRatio="xMidYMid meet">
<metadata>
Created by potrace 1.14, written by Peter Selinger 2001-2017
</metadata>
<g transform="translate(0.000000,230.000000) scale(0.100000,-0.100000)"
fill="#000000" stroke="none">
<path d="M239 2148 c-34 -51 -100 -147 -145 -214 -46 -67 -84 -127 -86 -134
-2 -10 108 -13 567 -13 l570 -1 48 70 c26 38 52 76 57 84 6 8 51 76 101 150
50 74 93 138 95 143 3 4 -253 7 -569 7 l-575 0 -63 -92z"/>
<path d="M1451 2168 c-28 -40 -55 -80 -61 -88 -28 -39 -201 -287 -210 -300 -5
-8 -33 -49 -62 -90 -29 -41 -80 -115 -113 -163 -33 -48 -81 -118 -108 -155
-26 -37 -69 -98 -95 -137 -26 -38 -51 -74 -55 -80 -5 -5 -51 -71 -102 -145
-52 -74 -105 -151 -119 -170 -70 -97 -519 -746 -522 -755 -3 -7 131 -10 401
-10 l405 0 58 82 c31 45 102 148 157 228 55 80 106 153 113 163 7 9 133 191
280 404 147 213 375 544 507 735 132 190 270 390 308 444 37 54 67 100 67 103
0 3 -180 6 -399 6 l-400 0 -50 -72z"/>
<path d="M1192 512 c-43 -3 -44 -5 -107 -100 -36 -53 -103 -154 -150 -224
l-85 -128 575 0 574 0 151 221 c83 122 148 224 146 227 -6 5 -1035 9 -1104 4z"/>
</g>
</svg>
